<svg width="32" height="32" viewBox="0 0 32 32" fill="none" xmlns="http://www.w3.org/2000/svg">
    <!-- Calendar background -->
    <rect x="4" y="6" width="24" height="22" rx="3" fill="#3B82F6" stroke="#1D4ED8" stroke-width="1"/>
    
    <!-- Calendar header -->
    <rect x="4" y="6" width="24" height="6" rx="3" fill="#1D4ED8"/>
    <rect x="4" y="9" width="24" height="3" fill="#1D4ED8"/>
    
    <!-- Calendar rings -->
    <circle cx="10" cy="4" r="1.5" fill="#6B7280"/>
    <circle cx="16" cy="4" r="1.5" fill="#6B7280"/>
    <circle cx="22" cy="4" r="1.5" fill="#6B7280"/>
    
    <!-- Calendar grid lines -->
    <line x1="8" y1="12" x2="8" y2="26" stroke="#2563EB" stroke-width="0.5"/>
    <line x1="12" y1="12" x2="12" y2="26" stroke="#2563EB" stroke-width="0.5"/>
    <line x1="16" y1="12" x2="16" y2="26" stroke="#2563EB" stroke-width="0.5"/>
    <line x1="20" y1="12" x2="20" y2="26" stroke="#2563EB" stroke-width="0.5"/>
    <line x1="24" y1="12" x2="24" y2="26" stroke="#2563EB" stroke-width="0.5"/>
    
    <line x1="6" y1="15" x2="26" y2="15" stroke="#2563EB" stroke-width="0.5"/>
    <line x1="6" y1="18" x2="26" y2="18" stroke="#2563EB" stroke-width="0.5"/>
    <line x1="6" y1="21" x2="26" y2="21" stroke="#2563EB" stroke-width="0.5"/>
    <line x1="6" y1="24" x2="26" y2="24" stroke="#2563EB" stroke-width="0.5"/>
    
    <!-- Today highlight -->
    <rect x="12.5" y="15.5" width="3" height="2.5" rx="0.5" fill="#EF4444"/>
    
    <!-- Lunar calendar symbol -->
    <circle cx="18" cy="21" r="1" fill="#F59E0B"/>
    <path d="M17.3 20.3 Q18 19.5 18.7 20.3 Q18 21 17.3 20.3" fill="#1D4ED8"/>
</svg> 